<?xml version="1.0" encoding="utf-8"?>
<!-- Generator: Adobe Illustrator 25.2.1, SVG Export Plug-In . SVG Version: 6.00 Build 0)  -->
<svg version="1.1" id="Layer_1" xmlns="http://www.w3.org/2000/svg" xmlns:xlink="http://www.w3.org/1999/xlink" x="0px" y="0px"
	 width="170px" height="34px" viewBox="0 0 170 34" style="enable-background:new 0 0 170 34;" xml:space="preserve">
<style type="text/css">
	.st0{fill:#231F20;}
	.st1{fill:#4E96FC;}
</style>
<path class="st0" d="M52.9,27.3h13.2v5.6H46.8V2.8h6.1C52.9,2.8,52.9,27.3,52.9,27.3z M95.6,6.8c-3.2-3-7-4.6-11.4-4.6
	S76,3.7,73,6.8c-3.2,3-4.7,6.7-4.7,11.1c0,4.4,1.7,8.1,4.7,11.1c3,3,6.7,4.6,11.3,4.6S92.4,32,95.6,29c3.2-3,4.7-6.7,4.7-11.1
	C100.4,13.5,98.8,9.8,95.6,6.8z M91.2,25c-1.8,1.8-4.1,2.7-6.9,2.7c-2.9,0-5.2-0.9-7-2.7c-1.8-1.8-2.7-4.3-2.7-7.2
	c0-2.9,0.9-5.3,2.7-7.2c1.8-1.8,4.1-2.7,7-2.7c2.7,0,5,0.9,6.9,2.7c1.8,1.8,2.7,4.3,2.7,7.2C94,20.8,93.1,23.2,91.2,25z M132.6,8.7
	l-4.4,3.7c-2.1-2.9-4.9-4.4-8.4-4.4c-2.9,0-5.2,0.9-7,2.7s-2.7,4.3-2.7,7.2s0.9,5.3,2.7,7.3s4.3,2.9,7.3,2.9c3.5,0,6.1-1.2,7.9-3.8
	v-2.4h-8.4v-5.3h14.5v8.8c-1.4,2.4-3.3,4.4-5.9,5.9s-5.2,2.3-8.2,2.3c-4.6,0-8.4-1.5-11.4-4.6c-3-3-4.7-6.7-4.7-11.1
	s1.5-8.1,4.7-11.1c3-3,6.9-4.6,11.4-4.6C125.3,2.2,129.6,4.5,132.6,8.7z M165.2,6.8c-3-3-7-4.6-11.4-4.6c-4.4,0-8.2,1.5-11.3,4.6
	c-3.2,3-4.7,6.7-4.7,11.1c0,4.4,1.7,8.1,4.7,11.1s6.7,4.6,11.3,4.6S162,32,165.2,29c3.2-3,4.7-6.7,4.7-11.1
	C169.9,13.5,168.4,9.8,165.2,6.8z M160.8,25c-1.8,1.8-4.1,2.7-6.9,2.7c-2.9,0-5.2-0.9-7-2.7c-1.8-1.8-2.7-4.3-2.7-7.2
	c0-2.9,0.9-5.3,2.7-7.2c1.8-1.8,4.3-2.7,7-2.7c2.7,0,5,0.9,6.9,2.7c1.8,1.8,2.7,4.3,2.7,7.2C163.5,20.8,162.6,23.2,160.8,25z"/>
<path class="st1" d="M16.7,0.2C7.4,0.2-0.1,7.8-0.1,17s7.5,16.8,16.8,16.8S33.4,26.2,33.4,17S25.9,0.2,16.7,0.2z M20.7,8.3
	c1.2,0,2.2,1,2.2,2.2s-1,2.2-2.2,2.2c-1.2,0-2.2-1-2.2-2.2S19.5,8.3,20.7,8.3z M25.2,23h-17c-1,0-1.6-1.2-1-2l6.3-8.7
	c0.5-0.7,1.6-0.7,2,0l3.6,5.1c0.2,0.2,0.5,0.2,0.7,0l0.8-1.2c0.5-0.7,1.6-0.7,2,0l3.5,4.8C26.8,21.8,26.2,23,25.2,23z"/>
</svg>
